<svg width="73" height="72" viewBox="0 0 73 72" fill="none" xmlns="http://www.w3.org/2000/svg">
<path d="M69.414 3.43945H3.56348V69.2785H69.414V3.43945Z" stroke="white" stroke-miterlimit="10"/>
<path d="M6.35381 0.740723H0.75V6.34356H6.35381V0.740723Z" fill="white"/>
<path d="M72.2493 0.740723H66.6455V6.34356H72.2493V0.740723Z" fill="white"/>
<path d="M6.35381 66.397H0.75V71.9998H6.35381V66.397Z" fill="white"/>
<path d="M72.2493 66.3975H66.6455V72.0003H72.2493V66.3975Z" fill="white"/>
<path d="M24.9266 21.5965L25.5899 20.5674L24.6979 28.1827H23.5771L24.0346 20.5674H48.9658L49.4233 28.1827H48.3025L47.4105 20.5674L48.0738 21.5965H24.9038H24.9266ZM36.8204 50.9142L42.7445 51.2343V52.172H30.2331V51.2343L36.1571 50.9142H36.8204ZM35.7912 35.0433C35.7912 30.1951 35.7912 25.3241 35.6997 20.5674H37.2779C37.1864 25.3241 37.1864 30.1951 37.1864 35.0433V37.6961C37.1864 42.5442 37.1864 47.4153 37.2779 52.172H35.6997C35.7912 47.4153 35.7912 42.5442 35.7912 37.6961V35.0433Z" fill="white"/>
</svg>
