<svg width="108" height="103" viewBox="0 0 108 103" fill="none" xmlns="http://www.w3.org/2000/svg">
<path d="M102.464 1H5.38813C2.96463 1 1 2.9643 1 5.38738V78.8982C1 81.3213 2.96463 83.2856 5.38813 83.2856H102.464C104.888 83.2856 106.853 81.3213 106.853 78.8982V5.38738C106.853 2.9643 104.888 1 102.464 1Z" stroke="white" stroke-width="2" stroke-miterlimit="10"/>
<path d="M73.2697 101.73H34.5825" stroke="white" stroke-width="2" stroke-miterlimit="10" stroke-linecap="round"/>
<path d="M98.2254 10.0435H9.65674V66.751H98.2254V10.0435Z" stroke="#F15A29" stroke-width="2" stroke-miterlimit="10"/>
<path d="M65.449 101.581H42.4038L44.9412 83.2856H62.9415L65.449 101.581Z" stroke="white" stroke-width="2" stroke-miterlimit="10"/>
<path d="M48.6127 29.5628L61.1203 36.7855C62.3741 37.5018 62.3741 39.3225 61.1203 40.0388L48.6127 47.2615C47.3589 47.9778 45.8066 47.0824 45.8066 45.6498V31.2342C45.8066 29.8016 47.3589 28.8763 48.6127 29.6225V29.5628Z" stroke="white" stroke-width="2" stroke-miterlimit="10"/>
</svg>
