      <svg
        width="1600"
        height="1006"
        viewBox="0 0 1600 1006"
        fill="none"
        xmlns="http://www.w3.org/2000/svg"
      >
        <g clip-path="url(#clip0_285_2667)">
          <path d="M1601 0H0V1006H1601V0Z" fill="#28283D" />
          <path
            d="M211.219 257.596C228.425 345.187 251.663 431.568 281.15 515.362C300.482 570.299 325.012 627.6 370.795 663.115C411.841 694.956 466.992 706.83 512.213 677.432C585.902 629.526 565.299 543.78 569.214 467.298C570.349 445.1 571.735 422.793 574.09 400.696C576.852 374.772 583.108 351.203 602.663 333.73C625.095 313.688 654.664 312.699 682.527 314.556C721.376 317.146 757.18 324.375 793.892 305.818C865.323 269.717 886.471 181.56 892.796 104.535C894.645 82.0292 896.019 59.4 895.524 36.7966C895.276 25.4346 894.523 14.0811 893.096 2.8168C892.974 1.86541 892.86 0.928394 892.75 0.00287429H841.276C844.662 6.51601 847.692 13.2476 850.446 19.9245C861.056 45.6465 867.143 75.1396 868.083 104.96C870.318 175.745 843.561 248.361 779.463 276.659C710.463 307.117 639.352 280.019 573.208 255.935C549.458 247.289 506.318 237.916 493.067 268.818C488.567 279.312 489.88 291.49 491.737 302.855C497.608 338.769 507.913 373.749 517.609 408.646C527.279 443.442 541.872 478.813 545.641 515.023C548.226 539.854 544.003 566.07 531.046 587.219C516.981 610.176 493.987 625.812 468.447 629.336C374.131 642.348 328.473 498.246 305.142 425.345C281.587 351.746 267.097 275.302 255.406 198.671C249.957 162.958 245.244 127.618 242.662 91.6638C241.224 71.6416 240.194 51.5877 239.597 31.5165C239.501 28.306 240.235 13.604 240.505 0H178.666C183.792 86.5677 194.525 172.681 211.21 257.596H211.219Z"
            fill="#1D1D33"
          />
          <path
            d="M239.606 31.5165C240.2 51.5877 241.23 71.6416 242.671 91.6638C245.253 127.618 249.966 162.96 255.415 198.671C267.105 275.302 281.596 351.744 305.151 425.345C328.482 498.246 374.136 642.348 468.456 629.336C493.996 625.812 516.989 610.176 531.055 587.219C544.011 566.068 548.232 539.854 545.65 515.023C541.88 478.813 527.288 443.439 517.618 408.646C507.922 373.752 497.617 338.769 491.746 302.855C489.889 291.49 488.576 279.312 493.076 268.818C506.327 237.916 549.466 247.289 573.216 255.935C639.361 280.019 710.471 307.117 779.472 276.659C843.57 248.358 870.327 175.745 868.091 104.96C867.148 75.1396 861.062 45.6465 850.454 19.9245C847.701 13.2476 844.67 6.51601 841.285 0.00287429H802.494C809.049 13.4574 814.469 27.6046 818.734 42.0508C826.893 69.6957 832.741 109.706 829.039 146.465C820.501 231.202 744.095 257.136 673.387 240.583C647.407 234.501 626.678 216.804 603.827 203.29C572.241 184.607 527.748 160.831 490.966 174.107C466.732 182.853 450.254 208.469 445.442 235.257C438.293 275.066 452.775 313.996 466.654 350.168C473.905 369.064 481.197 387.937 488.424 406.841C495.221 424.601 501.841 442.571 505.837 461.331C511.805 489.336 512.469 525.695 491.047 547.879C480.967 558.307 467.096 562.291 453.368 559.373C413.952 550.992 393.817 503.339 380.587 467.721C363.82 422.586 349.941 375.33 338.326 328.453C311.808 221.458 297.917 110.203 288.893 0H240.511C240.24 13.604 239.507 28.306 239.603 31.5165H239.606Z"
            fill="#28283D"
          />
          <path
            d="M380.578 467.718C393.811 503.336 413.946 550.989 453.359 559.37C467.087 562.288 480.958 558.304 491.038 547.876C512.457 525.692 511.793 489.333 505.829 461.329C501.832 442.565 495.213 424.598 488.416 406.838C481.185 387.931 473.893 369.058 466.645 350.166C452.763 313.993 438.284 275.063 445.433 235.255C450.245 208.466 466.721 182.851 490.957 174.104C527.739 160.828 572.232 184.604 603.819 203.287C626.669 216.802 647.398 234.499 673.378 240.581C744.087 257.134 820.495 231.199 829.03 146.462C832.732 109.703 826.884 69.6928 818.725 42.0479C814.461 27.6046 809.041 13.4574 802.485 0H763.971C768.436 5.87217 772.71 11.9053 776.759 18.0735C793.761 43.9708 806.037 78.7669 805.606 111.551C805.219 141.07 794.535 168.956 767.732 187.242C712.462 224.944 643.966 160.227 605.862 122.166C567.738 84.0872 508.271 10.0428 448.457 47.5206C363.325 100.864 405.635 262.244 436.61 336.84C448.309 365.014 497.518 446.805 467.78 476.867C462.782 481.911 455.19 482.363 448.775 480.842C417.494 473.438 407.326 425.443 397.423 398.592C351.21 273.296 332.394 131.277 365.371 0H288.896C297.92 110.203 311.808 221.458 338.32 328.45C349.935 375.327 363.814 422.583 380.581 467.718H380.578Z"
            fill="#1D1D33"
          />
          <path
            d="M805.606 111.551C805.219 141.07 794.536 168.953 767.732 187.24C712.463 224.942 643.966 160.224 605.862 122.166C567.738 84.0872 508.271 10.0428 448.458 47.5206C363.325 100.864 405.635 262.244 436.61 336.84C448.309 365.014 497.518 446.805 467.78 476.867C462.782 481.908 455.191 482.363 448.778 480.842C417.497 473.438 407.329 425.443 397.427 398.592C351.21 273.296 332.394 131.277 365.372 0H763.971C768.436 5.87217 772.71 11.9053 776.759 18.0735C793.761 43.9708 806.034 78.7669 805.606 111.551Z"
            fill="#28283D"
          />
          <path
            d="M148.75 0H129.169C127 6.24295 125.029 12.5721 123.294 18.9674C108.917 72.0497 110.044 128.558 118.163 182.698C126.622 239.106 142.774 293.743 157.338 348.599C164.752 376.52 172.055 404.63 177.248 433.138C181.679 457.445 182.773 486.838 171.764 509.079C167.054 518.596 160.126 526.805 150.293 532.746C141.33 538.152 131.241 540.65 121.1 541.984C70.1471 548.678 36.2554 555.726 2.89927 600.409C1.91829 601.723 0.951867 603.051 0 604.39V680.389C21.0051 655.389 49.9221 637.407 80.018 627.991C110.661 618.4 142.885 616.299 174.655 617.917C192.446 618.822 210.697 623.99 228.509 621.389C252.792 617.842 266.229 600.614 266.532 575.038C267.079 528.92 232.052 463.387 220.603 435.632C207.734 404.438 194.711 373.289 184.61 340.928C174.064 307.169 166.236 272.517 159.73 237.634C153.286 203.06 148.008 168.232 142.885 133.416C138.009 100.284 133.797 65.7435 140.53 32.5455C142.873 20.9938 146.864 11.3678 148.75 0Z"
            fill="#1D1D33"
          />
          <path
            d="M121.1 541.984C131.241 540.65 141.327 538.153 150.293 532.746C160.123 526.805 167.051 518.599 171.764 509.079C182.773 486.838 181.679 457.445 177.248 433.138C172.052 404.63 164.752 376.523 157.337 348.599C142.774 293.743 126.622 239.106 118.162 182.698C110.044 128.558 108.917 72.0497 123.294 18.9674C125.029 12.5721 127.003 6.24007 129.169 0H97.038C91.1667 7.38404 87.9676 16.6479 85.5516 25.9491C67.0091 97.4038 84.3493 170.549 95.3468 241.621C99.5006 268.458 103.503 298.135 103.524 327.373C103.547 358.429 99.0844 390.595 84.1194 417.746C68.5373 446.02 41.9316 460.955 20.6703 483.464C12.4121 492.207 5.72861 502.169 -0.00878906 512.77V604.388C0.943078 603.048 1.9095 601.72 2.89048 600.407C36.2466 555.726 70.1383 548.678 121.091 541.981L121.1 541.984Z"
            fill="#28283D"
          />
          <path
            d="M84.1253 417.746C99.0903 390.592 103.553 358.429 103.529 327.372C103.506 298.135 99.5036 268.458 95.3527 241.621C84.3552 170.549 67.015 97.4038 85.5574 25.949C87.9706 16.6479 91.1726 7.38117 97.0439 0H56.9432C54.3292 7.83818 51.7909 15.6965 49.3778 23.6036C27.9418 93.9029 22.0152 163.952 39.8533 236.703C48.0329 270.059 53.7849 307.422 46.6095 341.566C40.2986 371.593 21.5902 390.535 0 396.672V512.773C5.7374 502.172 12.4208 492.207 20.6791 483.466C41.9375 460.961 68.5432 446.026 84.1282 417.749L84.1253 417.746Z"
            fill="#1D1D33"
          />
          <path
            d="M46.6095 341.566C53.7849 307.422 48.0329 270.059 39.8533 236.703C22.0152 163.952 27.9389 93.9029 49.3778 23.6036C51.788 15.6965 54.3292 7.83818 56.9432 0H0V396.672C21.5902 390.535 40.2986 371.593 46.6095 341.566Z"
            fill="#28283D"
          />
          <path
            d="M1052.09 981.203C1043.24 958.709 1033.66 936.465 1022.13 915.379C1000.1 875.114 970.27 839.294 929.896 819.694C893.748 802.147 850.862 798.928 815.119 819.516C781.189 839.061 754.77 875.982 715.883 885.076C670.298 895.734 627.548 856.149 585.32 844.75C541.61 832.948 496.217 838.251 451.697 840.789C406.73 843.353 359.331 843.873 318.267 821.278C277.037 798.606 248.656 758.165 215.739 724.668C182.52 690.88 139.907 660.491 91.877 668.343C55.4877 674.29 24.0878 697.52 -0.00292969 725.93V834.511C45.3811 781.377 105.82 730.876 176.625 761.726C256.713 796.62 286.177 903.267 385.276 900.275C428.169 898.976 469.349 882.834 512.262 881.744C532.03 881.25 551.405 884.573 569.636 892.877C587.844 901.169 604.38 912.905 621.927 922.574C640.406 932.76 660.389 940.213 681.458 937.008C704.027 933.574 723.99 920.458 742.675 907.3C776.686 883.351 811.192 854.603 852.102 845.98C892.205 837.524 929.884 854.677 957.544 885.587C972.613 902.434 984.19 922.442 993.971 943.151C1002.68 961.589 1011.9 981.284 1017.7 1001.01C1018.21 1002.72 1018.64 1004.38 1019.01 1005.99H1062.6C1059.12 997.167 1055.02 988.659 1052.09 981.198V981.203Z"
            fill="#1D1D33"
          />
          <path
            d="M1019.02 1006H648.12C644.627 1000.7 640.816 995.641 636.741 990.844C619.369 970.408 597.112 954.892 572.975 945.172C544.293 933.608 512.917 930.383 482.509 933.456C466.997 935.02 451.732 938.245 436.724 942.682C421.016 947.319 405.545 952.912 389.596 956.623C321.583 972.449 294.284 920.338 257.758 870.969C242.368 850.202 224.056 830.7 200.716 820.528C160.115 802.831 104.63 819.585 66.6132 837.969C43.5559 849.119 20.6238 867.12 0 888.174V834.514C45.384 781.38 105.823 730.882 176.628 761.729C256.719 796.623 286.18 903.27 385.279 900.278C428.171 898.979 469.352 882.837 512.265 881.748C532.033 881.253 551.408 884.579 569.639 892.88C587.846 901.172 604.383 912.908 621.93 922.577C640.406 932.76 660.392 940.216 681.461 937.011C704.03 933.577 723.993 920.461 742.678 907.306C776.689 883.357 811.195 854.606 852.105 845.986C892.208 837.53 929.887 854.683 957.544 885.591C972.613 902.437 984.193 922.445 993.974 943.157C1002.68 961.592 1011.9 981.29 1017.7 1001.02C1018.21 1002.73 1018.64 1004.39 1019.02 1006Z"
            fill="#28283D"
          />
          <path
            d="M572.975 945.172C544.293 933.611 512.917 930.383 482.509 933.456C466.997 935.02 451.732 938.245 436.724 942.683C421.014 947.319 405.542 952.912 389.596 956.623C321.583 972.449 294.281 920.338 257.755 870.969C242.365 850.202 224.056 830.703 200.713 820.528C160.112 802.831 104.627 819.585 66.6132 837.969C43.5559 849.122 20.6238 867.12 0 888.175V1006H44.2837C48.4841 997.397 51.3135 987.817 53.3599 978.686C60.8613 945.266 68.8488 908.7 94.689 884.582C124.168 857.066 169.881 862.392 197.782 890.379C219.718 912.385 230.876 943.625 251.692 967.074C264.992 982.055 280.128 995.19 296.607 1006H648.12C644.624 1000.7 640.816 995.641 636.738 990.844C619.366 970.408 597.109 954.893 572.972 945.172H572.975Z"
            fill="#1D1D33"
          />
          <path
            d="M251.692 967.073C230.876 943.628 219.718 912.384 197.782 890.379C169.881 862.392 124.168 857.066 94.689 884.581C68.8489 908.7 60.8613 945.266 53.3599 978.686C51.3106 987.817 48.4841 997.397 44.2837 1006H296.61C280.131 995.19 264.995 982.054 251.695 967.073H251.692Z"
            fill="#28283D"
          />
          <path
            d="M1601 651.931V775.842C1592.81 768.538 1585.76 761.582 1581.51 758.57C1557.74 741.689 1522.89 729.623 1498.02 749.421C1448.42 788.908 1405.66 839.096 1358.13 881.561C1337.33 900.149 1316.53 919.881 1292.77 934.129C1254.04 957.347 1207.24 963.078 1163.85 954.849C1114.27 945.442 1090.84 919.544 1057.53 882.182C1024.29 844.902 997.088 793.303 952.845 770.32C911.962 749.082 861.021 746.751 819.529 767.434C798.832 777.75 783.154 793.297 767.618 810.773C754.048 826.035 738.568 843.189 717.929 845.908C706.993 847.351 695.818 844.258 686.977 837.222C677.907 830.01 672.333 819.307 664.741 810.586C646.915 790.084 619.421 790.866 595.52 795.315C567.913 800.457 540.844 808.603 513.266 814.021C462.669 823.963 409.076 827.918 360.286 807.315C326.569 793.079 297.742 767.27 278.1 734.788C267.908 717.939 267 696.756 285.799 686.408C306.062 675.27 333.136 694.235 349.437 705.801C372.215 721.966 394.766 736.119 421.11 745.291C455.709 757.337 491.196 757.8 526.374 748.177C561.014 738.694 593.351 721.805 625.42 705.321C683.589 675.417 752.211 642.593 817.607 665.199C832.471 670.341 845.753 678.743 859.117 687.199C873.194 696.118 888.139 705.542 904.798 707.204C922.677 708.989 938.975 700.498 955.634 695.091C969.411 690.622 983.881 688.156 998.299 688.179C1025.67 688.21 1053.41 697.9 1071.3 720.914C1081.75 734.357 1088.37 750.421 1095.27 766.101C1114.13 808.956 1145.09 853.025 1188.65 870.705C1220.14 883.489 1254.51 879.954 1285.23 866.367C1351.19 837.199 1390.13 770.628 1433.56 714.119C1453.07 688.739 1475.27 663.842 1503.57 649.793C1530.37 636.502 1561.05 635.082 1588.78 646.137C1592.99 647.812 1597.06 649.752 1601 651.931Z"
            fill="#1D1D33"
          />
          <path
            d="M1601 935.258C1594.19 940.596 1585.25 943.027 1574.93 941.07C1559.96 938.23 1548.01 928.343 1532.61 926.825C1524.11 925.989 1515.52 926.67 1507.11 928.113C1489.42 931.131 1472.27 937.02 1454.53 939.719C1446.23 940.975 1427.41 941.725 1431.89 926.4C1434.59 917.199 1451.79 914.586 1458.91 910.718C1465.57 907.096 1471.9 902.736 1477.71 897.703C1491.32 885.884 1499.53 870.96 1508.24 855.011C1531.46 812.469 1577.38 832.454 1601 864.89V797.18C1599.52 796.269 1597.98 795.51 1596.39 794.895C1596.12 794.619 1595.79 794.389 1595.36 794.234C1581.66 789.466 1567.44 786.451 1553.07 785.218C1531.65 783.378 1511.14 786.652 1495.88 804.171C1485.69 815.86 1479.59 830.516 1472.18 844.181C1466.28 855.071 1458.99 864.804 1450.62 873.668C1442.13 882.642 1432.85 890.701 1423.53 898.651C1409.09 910.956 1389.91 924.046 1380.18 941.053C1370.27 958.367 1373.06 976.599 1390.27 984.932C1402.13 990.669 1415.25 991.692 1428.05 989.898C1472.84 983.618 1508.46 948.793 1554.52 968.241C1571.17 975.265 1587.5 979.16 1601.01 975.76V935.261L1601 935.258Z"
            fill="#1D1D33"
          />
          <path
            d="M1508.24 855.011C1499.53 870.96 1491.32 885.884 1477.71 897.703C1471.9 902.736 1465.57 907.096 1458.91 910.717C1451.79 914.586 1434.58 917.199 1431.89 926.4C1427.41 941.725 1446.23 940.975 1454.53 939.719C1472.27 937.02 1489.42 931.131 1507.11 928.113C1515.52 926.67 1524.11 925.989 1532.61 926.825C1548.01 928.34 1559.96 938.227 1574.93 941.07C1585.25 943.027 1594.19 940.596 1601 935.258V864.887C1577.38 832.451 1531.46 812.466 1508.24 855.008V855.011Z"
            fill="#28283D"
          />
          <path
            d="M951.824 106.052C950.823 154.786 940.361 203.632 920.241 247.499C902.507 286.17 876.149 322.604 839.876 343.029C819.427 354.546 796.652 359.556 773.601 359.335C760.97 359.202 748.378 357.639 735.986 355.052C710.745 349.783 683.514 337.182 657.644 344.903C630.497 353.005 622.082 381.567 618.752 408.344C612.639 457.454 624.143 507.926 613.207 556.496C608.476 577.501 594.623 595.762 591.727 617.011C587.858 645.398 610.069 659.962 634.241 655.328C645.558 653.158 656.588 648.404 667.326 644.122C697.946 631.894 723.67 613.841 735.762 580.686C739.84 569.499 742.672 557.873 746.069 546.453C749.012 536.566 752.368 526.799 756.324 517.328C772.855 477.738 801.144 443.315 844.536 441.321C898.918 438.82 952.784 456.922 1007.26 457.089C1055.4 457.236 1124.24 452.651 1159.2 411.894C1188.89 377.276 1186.82 324.306 1187.39 280.573C1188.08 227.669 1225.77 191.31 1264.64 164.86C1314.89 130.668 1373.13 101.508 1433.79 100.264C1490.07 99.1082 1547.93 113.048 1601 136.758V102.606C1595.97 100.548 1591.07 98.3781 1586.39 96.4725C1493.42 58.5721 1387.51 50.0068 1294.36 91.9138C1253.28 110.39 1215.67 138.092 1186.39 174.064C1169.73 194.537 1158.69 218.538 1152.11 244.616C1145.81 269.576 1146.39 297.371 1137.8 321.426C1122.93 363.091 1087.32 391.687 1046.17 397.402C995.266 404.472 943.699 391.366 892.357 397.094C849.156 401.914 804.354 416.55 767.95 443.649C750.502 456.635 732.193 475.499 720.508 494.59C708.766 513.77 707.992 539.572 692.011 556.013C671.183 577.424 671.826 519.651 671.626 512.637C670.581 476.643 658.18 404.538 698.645 386.775C717.772 378.362 739.534 383.306 759.363 385.355C807.111 390.299 857.915 384.982 898.257 355.02C934.778 327.901 958.595 285.477 975.615 242.521C1004.98 168.453 1023.01 77.7178 997.179 -0.00292969H938.661C948.174 34.3275 952.566 70.2504 951.827 106.05L951.824 106.052Z"
            fill="#1D1D33"
          />
          <path
            d="M975.609 242.524C958.589 285.477 934.772 327.901 898.252 355.023C857.909 384.985 807.105 390.302 759.357 385.358C739.528 383.309 717.766 378.365 698.639 386.778C658.174 404.541 670.578 476.646 671.62 512.64C671.824 519.654 671.18 577.427 692.005 556.016C707.986 539.572 708.763 513.773 720.503 494.593C732.19 475.502 750.5 456.638 767.945 443.652C804.351 416.553 849.153 401.917 892.351 397.097C943.697 391.369 995.263 404.475 1046.17 397.405C1087.32 391.69 1122.93 363.094 1137.8 321.429C1146.39 297.374 1145.8 269.579 1152.1 244.619C1158.69 218.541 1169.72 194.543 1186.38 174.067C1215.67 138.095 1253.28 110.393 1294.35 91.9168C1387.5 50.0098 1493.41 58.5751 1586.38 96.4754C1591.07 98.3811 1595.97 100.554 1601 102.609V57.7157C1461 9.79275 1262.47 12.8625 1146.6 124.623C1104.99 164.766 1104.01 208.521 1104.44 264.388C1104.68 296.348 1097.4 327.47 1070.39 344.753C1049.39 358.185 1016.61 364.669 998.515 342.477C976.855 315.916 1000.9 283.301 1014.78 260.706C1027.66 239.75 1035.88 215.758 1041 191.407C1049.05 153.093 1051.37 112.201 1051.99 73.0012C1052.39 48.1788 1049.87 23.6698 1043.98 0.00292969H997.173C1023 77.7207 1004.97 168.456 975.609 242.527V242.524Z"
            fill="#28283D"
          />
          <path
            d="M1052 72.9982C1051.37 112.195 1049.05 153.09 1041 191.404C1035.88 215.755 1027.67 239.747 1014.79 260.703C1000.9 283.298 976.857 315.913 998.517 342.474C1016.61 364.666 1049.39 358.182 1070.39 344.75C1097.4 327.467 1104.68 296.348 1104.44 264.385C1104.02 208.518 1104.99 164.76 1146.61 124.62C1262.47 12.8624 1461 9.79269 1601 57.7128V0H1259.82C1250.18 5.20821 1240.52 10.3819 1231.09 16.1017C1209.6 29.1309 1191.39 47.3424 1172.47 64.0822C1156.47 78.2352 1137.99 100.922 1115.71 104.121C1083.92 108.682 1087.84 73.4926 1089.54 50.1994C1090.86 32.1748 1091.14 16.3604 1089.7 0.00287429H1043.98C1049.87 23.6697 1052.39 48.1788 1051.99 73.0011L1052 72.9982Z"
            fill="#1D1D33"
          />
          <path
            d="M1089.55 50.1965C1087.85 73.4897 1083.92 108.68 1115.71 104.118C1137.99 100.919 1156.47 78.2322 1172.47 64.0793C1191.4 47.3423 1209.6 29.1308 1231.09 16.0988C1240.52 10.3819 1250.18 5.20528 1259.83 -0.00292969H1089.7C1091.14 16.3546 1090.87 32.1718 1089.55 50.1936L1089.55 50.1965Z"
            fill="#28283D"
          />
          <path
            d="M1334.95 174.116C1294.78 189.41 1257.56 216.408 1232.98 253.989C1220.69 272.784 1212.18 294.014 1207.98 316.488C1203.37 341.195 1202.96 366.474 1199.96 391.415C1195.77 426.182 1184.9 456.715 1156.62 476.344C1117.19 503.716 1074.15 501.695 1029.27 497.803C963.013 492.058 862.68 470.317 809.699 520.982C795.17 534.87 784.988 554.573 784.365 575.369C781.684 664.667 962.047 631.679 1005.65 636.045C1039.3 639.414 1072.34 650.034 1093.7 679.8C1127.21 726.519 1127.51 788.353 1172.98 827.987C1217.93 867.183 1281.76 843.775 1320.74 807.743C1359.46 771.95 1387.14 722.598 1407.71 673.094C1423.8 634.358 1449.35 608.972 1484.6 589.921C1512 575.116 1542.29 566.746 1572.91 564.725C1581.8 564.139 1591.33 565.24 1601 566.602V545.433C1600.09 545.14 1599.18 544.847 1598.27 544.554C1557.7 531.619 1512.51 532.717 1473.69 551.458C1396.83 588.559 1390.58 672.192 1342.57 736.021C1321.27 764.33 1290.88 786.35 1256.1 788.598C1200.56 792.188 1190.89 746.245 1178.81 699.429C1173.02 676.963 1165.77 653 1146.94 639.244C1121.79 620.86 1087.26 618.834 1058.1 613.447C1018.6 606.15 978.345 603.468 938.297 605.417C900.106 607.276 864.904 611.102 828.221 595.911C804.506 586.093 802.258 561.845 824.841 547.957C896.336 503.983 983.366 504.141 1062.48 516.926C1105.02 523.795 1147.46 531.306 1190.07 537.658C1221.76 542.392 1269.81 554.559 1287 515.316C1301.74 481.667 1284.84 445.066 1270.49 415.139C1262.07 397.588 1253.62 379.552 1250.59 359.909C1248.06 343.48 1249.3 326.614 1253.72 310.67C1262.97 277.274 1284.99 248.338 1312.19 229.474C1343.06 208.081 1380.14 199.041 1416.45 196.265C1453.34 193.457 1491.3 195.802 1527.61 203.313C1553.09 208.578 1578.12 217.089 1601 230.029V182.865C1569.94 171.388 1535.49 165.918 1505.42 162.127C1450.91 155.255 1387.23 154.217 1334.95 174.113L1334.95 174.116Z"
            fill="#1D1D33"
          />
          <path
            d="M1416.45 196.271C1380.13 199.044 1343.06 208.087 1312.19 229.48C1284.99 248.341 1262.96 277.279 1253.72 310.676C1249.3 326.619 1248.06 343.489 1250.59 359.915C1253.62 379.558 1262.07 397.594 1270.49 415.145C1284.83 445.072 1301.73 481.673 1286.99 515.322C1269.81 554.565 1221.76 542.398 1190.06 537.664C1147.46 531.312 1105.02 523.801 1062.48 516.932C983.363 504.147 896.333 503.989 824.838 547.962C802.258 561.851 804.506 586.098 828.218 595.917C864.901 611.108 900.103 607.282 938.294 605.422C978.345 603.471 1018.59 606.155 1058.1 613.453C1087.25 618.839 1121.78 620.866 1146.94 639.25C1165.76 653.006 1173.02 676.969 1178.81 699.434C1190.88 746.254 1200.56 792.193 1256.1 788.603C1290.87 786.356 1321.27 764.336 1342.57 736.027C1390.57 672.198 1396.83 588.565 1473.69 551.463C1512.51 532.723 1557.7 531.625 1598.26 544.559C1599.18 544.85 1600.09 545.143 1601 545.439V514.532C1597.24 511.275 1593.43 507.955 1589.27 505.092C1560.31 485.168 1527.36 475.073 1493 479.135C1464.66 482.472 1435.57 491.831 1415.21 514.072C1386.64 545.269 1367.46 583.983 1348.99 622.435C1332.17 657.424 1315.12 705.614 1285.18 730.33C1254.53 755.63 1231.89 733.69 1224.49 700.265C1216.02 662.043 1189.1 623.711 1154.19 609.593C1116.76 594.457 1076.22 592.111 1036.83 587.24C1002.44 582.986 964.926 586.777 930.638 576.096C913.187 570.661 880.25 553.277 911.607 542.829C939.455 533.554 968.71 540.714 996.806 544.361C1047.62 550.957 1098.78 552.909 1149.54 560.089C1189.74 565.777 1236 586.59 1275.9 569.804C1285.45 565.786 1294.11 559.411 1301.43 551.791C1317.62 534.956 1326.96 512.505 1330.79 488.973C1335.25 461.524 1332.15 433.83 1327.95 406.602C1320.8 360.042 1315.45 312.372 1350.64 276.397C1412.76 212.91 1507.75 267.363 1560.1 317.005C1572.56 328.818 1586.88 341.189 1601 354.434V230.032C1578.11 217.089 1553.08 208.578 1527.61 203.315C1491.29 195.805 1453.34 193.46 1416.45 196.268L1416.45 196.271Z"
            fill="#28283D"
          />
          <path
            d="M1350.65 276.397C1315.45 312.372 1320.8 360.042 1327.95 406.602C1332.15 433.833 1335.25 461.524 1330.79 488.973C1326.96 512.505 1317.63 534.956 1301.43 551.791C1294.11 559.411 1285.45 565.786 1275.9 569.804C1236.01 586.59 1189.74 565.777 1149.54 560.089C1098.78 552.906 1047.62 550.955 996.809 544.361C968.713 540.713 939.458 533.551 911.609 542.829C880.253 553.274 913.19 570.661 930.641 576.096C964.926 586.777 1002.45 582.983 1036.84 587.24C1076.23 592.114 1116.77 594.457 1154.19 609.593C1189.11 623.711 1216.03 662.046 1224.49 700.265C1231.89 733.69 1254.53 755.629 1285.18 730.33C1315.12 705.614 1332.18 657.424 1348.99 622.435C1367.46 583.983 1386.64 545.269 1415.21 514.072C1435.58 491.83 1464.66 482.469 1493 479.135C1527.36 475.076 1560.32 485.168 1589.27 505.092C1593.43 507.952 1597.24 511.275 1601 514.532V491.445C1581.85 486.395 1567.13 468.417 1550.08 459.012C1510.24 437.035 1470.94 433.063 1426.89 436.098C1368.83 440.099 1365.53 368.009 1400.23 332.788C1425.41 307.235 1463.78 315.004 1491.32 331.095C1501.53 337.062 1511.15 344.098 1520.69 351.212C1546.51 370.455 1572.18 389.92 1597.87 409.364C1598.93 410.166 1599.97 410.937 1601 411.684V354.442C1586.88 341.198 1572.56 328.824 1560.1 317.014C1507.75 267.372 1412.76 212.916 1350.65 276.406V276.397Z"
            fill="#1D1D33"
          />
          <path
            d="M1520.69 351.203C1511.15 344.089 1501.53 337.053 1491.32 331.086C1463.78 314.996 1425.41 307.23 1400.23 332.779C1365.53 368.001 1368.83 440.091 1426.89 436.09C1470.94 433.054 1510.24 437.027 1550.08 459.003C1567.13 468.411 1581.85 486.387 1601 491.437V411.672C1599.97 410.925 1598.93 410.155 1597.87 409.353C1572.18 389.911 1546.51 370.444 1520.69 351.2V351.203Z"
            fill="#28283D"
          />
          <path
            d="M953.853 1006H752.03C751.981 1005.02 752.01 1004.03 752.127 1003.05C752.694 998.343 755.09 994.123 758.312 990.887C769.12 980.036 786.548 980.252 798.669 970.882C809.955 962.158 817.936 949.371 823.432 935.89C831.329 916.52 836.097 894.296 858.287 888.881C887.816 881.673 908.043 911.887 917.789 937C926.176 958.609 929.741 981.494 947.021 997.687C949.507 1000.02 952.243 1002.26 953.631 1005.47C953.71 1005.65 953.783 1005.82 953.853 1006Z"
            fill="#1D1D33"
          />
          <path
            d="M1601 674.112V724.604C1595.07 719.856 1588.63 715.772 1581.68 712.613C1551.11 698.707 1520.6 709.316 1494.27 726.855C1457.22 751.528 1427.84 785.617 1398.62 819.005C1345.27 879.974 1264.93 960.175 1173.36 931.004C1138.78 919.987 1111.29 893.598 1089.82 864.645C1057.11 820.525 1039.66 768.561 984.423 747.82C940.332 731.264 889.81 733.107 844.088 741.304C804.418 748.418 771.615 773.499 733.27 784.369C688.564 797.042 652.303 767.779 609.064 774.93C580.657 779.627 554.805 786.629 527.11 794.309C495.55 803.064 462.558 807.301 429.802 804.081C375.539 798.75 321.484 777.264 298.322 728.516C296.369 724.406 294.753 719.195 297.609 715.637C297.996 715.154 298.427 714.746 298.886 714.407C302.924 711.44 309.526 713.714 314.279 716.373C367.272 746.015 412.93 779.147 476.359 779.207C556.866 779.282 623.75 727.249 699.09 705.582C740.917 693.554 778.558 696.71 820.367 706.295C857.973 714.915 899.829 728.948 938.396 717.683C988.623 703.013 1033.05 701.849 1062.6 752.327C1089.72 798.652 1099.35 862.28 1157.11 881.681C1220.68 903.034 1295.46 890.686 1347.38 848.262C1398.99 806.099 1425.5 741.063 1471.26 692.769C1492.22 670.648 1517.68 662.557 1548.41 665.038C1561.39 666.084 1582.04 668.556 1601 674.112Z"
            fill="#28283D"
          />
          <path
            d="M720.793 104.521C662.732 113.911 611.233 53.6313 577.658 0H712.192C748.811 43.9823 777.315 95.3803 720.793 104.521Z"
            fill="#1D1D33"
          />
        </g>
        <defs>
          <clipPath id="clip0_285_2667">
            <rect width="1601" height="1006" fill="white" />
          </clipPath>
        </defs>
      </svg>