<svg width="78" height="80" viewBox="0 0 78 80" fill="none" xmlns="http://www.w3.org/2000/svg">
<path d="M39 55.9396L0 27.9812L39 0L78 27.9812L39 55.9624V55.9396ZM1.87328 27.9812L39 54.617L76.1267 27.9812L39 1.34547L1.87328 27.9812Z" fill="white"/>
<path d="M72.5595 39.6571L77.9801 35.7575L72.5595 31.8579L71.6229 32.542L76.1068 35.7575L38.9801 62.3932L1.87328 35.7575L6.35718 32.542L5.42054 31.8579L0 35.7575L5.42054 39.6571L0 43.5567L5.42054 47.4562L0 51.3558L39 79.337L78 51.3558L72.5795 47.4562L78 43.5567L72.5795 39.6571H72.5595ZM76.1267 51.333L39 77.9688L1.87328 51.333L6.35718 48.1176L38.9801 71.5151L71.603 48.1176L76.0869 51.333H76.1267ZM39 70.1696L1.87328 43.5567L6.35718 40.3412L38.9801 63.7387L71.603 40.3412L76.0869 43.5567L38.9601 70.1924L39 70.1696Z" fill="white"/>
</svg>
